<svg width="200" height="200" viewBox="0 0 200 200" fill="none" xmlns="http://www.w3.org/2000/svg">
<path d="M59.0723 25.5956C56.9922 26.3867 54.5312 28.7015 53.5059 30.7818L52.6855 32.4519V52.6695V72.887L53.5352 74.5864C54.5605 76.5788 56.4941 78.4834 58.5449 79.4796C59.7754 80.0949 60.5664 80.2121 63.2617 80.3L66.5137 80.4172L71.9043 85.8086C76.8848 90.819 77.3535 91.1999 78.3496 91.1999C80.2246 91.1999 80.3711 90.7897 80.3711 85.2519V80.3586H84.2969H88.1933L88.8379 82.0874C89.6289 84.2263 91.5332 87.1564 92.8515 88.2112C94.082 89.1782 94.1113 89.4419 92.9394 89.4419C91.6504 89.4419 86.4941 90.526 84.3555 91.2585C80.3125 92.6063 77.4121 94.9504 76.0351 97.8805L75.2441 99.5506L75.1562 108.927C75.0683 118.157 75.0683 118.332 75.6836 119.124C76.4746 120.12 78.0273 120.208 78.9062 119.329C79.4629 118.772 79.4922 118.362 79.4922 110.157C79.4922 105.03 79.6094 101.162 79.8144 100.488C80.2246 99.0232 81.7187 97.3824 83.5937 96.3568C87.1094 94.4523 95.8984 93.0166 102.051 93.3682C112.598 93.9249 119.072 96.474 120.186 100.488C120.391 101.162 120.508 105.03 120.508 110.157C120.508 118.362 120.537 118.772 121.094 119.329C121.973 120.208 123.525 120.12 124.287 119.153C124.873 118.391 124.902 118.039 124.902 109.835C124.902 100.342 124.697 98.906 123.174 96.5033C120.889 92.9286 116.143 90.7311 108.408 89.647L105.83 89.2661L106.973 88.3577C108.437 87.1564 110.342 84.3435 111.162 82.1167L111.777 80.3879L125.898 80.3L139.99 80.2121L141.455 79.4796C143.506 78.4834 145.439 76.5788 146.465 74.5864L147.314 72.887V52.6695V32.4519L146.494 30.7818C145.439 28.6429 143.008 26.3867 140.869 25.5956C139.258 24.9803 138.994 24.9803 99.9121 25.0096C61.2109 25.0096 60.5664 25.0096 59.0723 25.5956ZM138.203 29.3754C139.932 29.7563 141.631 31.1041 142.451 32.745L143.213 34.1807L143.301 51.7611C143.359 63.6572 143.271 69.8104 143.066 70.8652C142.627 72.9163 141.396 74.5571 139.639 75.4068L138.232 76.11L125.312 76.1979L112.393 76.2858L112.217 74.0004C111.865 68.8435 109.258 65.1223 104.863 63.4814C102.754 62.6903 97.2461 62.6903 95.1367 63.4814C90.7422 65.1223 88.1347 68.8435 87.7832 73.9711L87.6074 76.2565H82.4805C75.9473 76.2565 76.2695 76.0221 76.2695 80.6223V84.0212L72.4023 80.1535L68.5059 76.3151L65.1367 76.1979C62.3535 76.11 61.5039 75.9635 60.332 75.4068C58.6035 74.5571 57.373 72.9163 56.9336 70.8652C56.7285 69.7811 56.6406 63.6572 56.6992 51.6146L56.7871 33.917L57.6074 32.5105C58.4863 31.0162 60.1562 29.727 61.6797 29.3754C63.0566 29.0531 136.797 29.0238 138.203 29.3754ZM102.959 67.5249C104.453 67.9644 106.299 69.576 107.09 71.0996C107.969 72.7698 108.144 76.6081 107.5 79.1866C106.562 82.8492 104.307 85.6035 101.582 86.3946C100.146 86.8048 99.8535 86.8048 98.4179 86.3946C94.4629 85.2519 91.8554 80.4172 92.1484 74.7915C92.3535 71.0996 93.8769 68.609 96.6015 67.6421C98.0664 67.1147 101.436 67.0561 102.959 67.5249Z" fill="#8B7AEB"/>
<path d="M75.3318 44.9048C70.7322 47.3953 70.9666 54.1638 75.7419 56.1855C79.8142 57.8557 84.4431 54.8377 84.4724 50.4426C84.4724 48.5967 83.3005 46.3698 81.7771 45.315C80.1658 44.2015 77.0017 43.9964 75.3318 44.9048ZM79.5798 49.2413C80.6052 50.1496 79.8142 52.2299 78.4373 52.2299C76.8259 52.2299 75.8884 50.8528 76.5623 49.5636C77.1775 48.4502 78.4666 48.3037 79.5798 49.2413Z" fill="#8B7AEB"/>
<path d="M97.0701 44.9634C95.0487 46.0475 94.0233 47.7176 93.9061 50.1203C93.8182 51.7611 93.9061 52.2885 94.492 53.402C95.576 55.4237 97.2459 56.4492 99.6483 56.5664C101.289 56.6543 101.816 56.5664 102.93 55.9804C104.951 54.8963 105.976 53.2262 106.094 50.8235C106.181 49.1827 106.094 48.6552 105.508 47.5418C104.424 45.5201 102.754 44.4945 100.351 44.3773C98.7108 44.2894 98.1834 44.3773 97.0701 44.9634ZM101.23 49.212C101.875 49.798 101.904 50.9993 101.26 51.7025C100.264 52.816 98.242 52.0248 98.242 50.5305C98.242 48.9483 100.058 48.1571 101.23 49.212Z" fill="#8B7AEB"/>
<path d="M119.189 44.729C116.172 46.0768 114.707 49.9738 116.084 52.9625C118.252 57.6506 124.961 57.9143 127.246 53.402C128.857 50.1789 127.715 46.487 124.58 44.9048C123.262 44.2309 120.537 44.143 119.189 44.729ZM123.32 49.4464C124.17 50.7649 123.232 52.23 121.562 52.23C120.185 52.23 119.394 50.1496 120.449 49.2413C121.504 48.3037 122.617 48.3916 123.32 49.4464Z" fill="#8B7AEB"/>
<path d="M86.582 103.858C85.498 104.385 85.2929 105.821 85.4101 112.472C85.498 118.098 85.5566 118.743 86.0546 119.299C86.787 120.09 88.3691 120.12 89.1601 119.329C89.7167 118.772 89.746 118.362 89.746 111.74V104.708L88.9843 104.122C88.1347 103.448 87.578 103.389 86.582 103.858Z" fill="#8B7AEB"/>
<path d="M111.016 104.122L110.254 104.708V111.74C110.254 118.362 110.283 118.772 110.84 119.329C111.631 120.12 113.213 120.09 113.945 119.299C114.443 118.743 114.502 118.098 114.59 112.472C114.707 105.645 114.502 104.385 113.33 103.858C112.275 103.36 111.924 103.418 111.016 104.122Z" fill="#8B7AEB"/>
<path d="M42.0801 128.529C37.5098 130.023 35.2246 133.452 35.1953 138.814C35.1367 142.945 36.4258 146.549 38.8574 149.04L40.0879 150.329L37.7734 150.68C31.5625 151.618 27.4023 153.845 25.7617 157.185C25 158.709 25 158.709 25 166.356C25 174.971 25 175 27.1094 175C29.043 175 29.1016 174.766 29.1016 167.294C29.1016 160.262 29.2187 159.588 30.5078 158.211C33.0273 155.544 41.3769 153.845 48.7598 154.519C56.875 155.222 61.2109 157.097 61.9433 160.232C62.0605 160.877 62.207 164.217 62.207 167.704C62.207 174.795 62.2656 175 64.3164 175C66.2793 175 66.3086 174.853 66.3086 166.473C66.3086 159.705 66.25 158.914 65.7226 157.771C64.7851 155.72 63.9941 154.782 62.1484 153.61C60.039 152.233 57.8418 151.472 54.0918 150.827L51.2207 150.329L52.4219 149.069C53.8867 147.545 55.3222 144.791 55.7617 142.564C56.3476 139.868 56.0254 135.62 55.1172 133.657C54.1797 131.576 52.5976 129.994 50.5176 129.056C48.5254 128.148 44.1016 127.855 42.0801 128.529ZM48.584 133.071C50.7812 134.067 51.748 135.913 51.7187 139.107C51.6894 144.791 47.4121 149.215 43.7793 147.311C39.8242 145.289 38.0664 137.729 40.7617 134.506C42.373 132.602 46.0644 131.899 48.584 133.071Z" fill="#8B7AEB"/>
<path d="M96.0449 128.705C92.9101 129.701 90.6543 132.25 89.8633 135.708C88.75 140.367 90.0684 145.611 93.1152 148.893L94.4043 150.27L90.9766 150.915C86.5234 151.765 83.3594 153.259 81.4258 155.398C79.375 157.683 79.1992 158.621 79.1992 166.854C79.1992 173.447 79.2285 173.857 79.7852 174.414C80.1367 174.766 80.752 175 81.3965 175C82.041 175 82.6562 174.766 83.0078 174.414C83.5645 173.857 83.5937 173.447 83.5937 167.06C83.5937 159.383 83.7109 158.855 85.7324 157.39C91.123 153.493 108.877 153.493 114.268 157.39C116.289 158.855 116.406 159.383 116.406 167.06C116.406 173.447 116.436 173.857 116.992 174.414C117.344 174.766 117.959 175 118.603 175C119.248 175 119.863 174.766 120.215 174.414C120.771 173.857 120.801 173.447 120.801 166.854C120.801 158.24 120.625 157.507 118.223 155.076C115.791 152.673 112.334 151.296 106.943 150.505L105.537 150.329L106.855 148.922C111.719 143.707 111.777 134.448 106.973 130.346C104.512 128.236 99.7656 127.533 96.0449 128.705ZM103.252 133.188C106.621 134.946 107.148 140.777 104.307 144.996C103.223 146.637 101.465 147.75 100 147.75C95.5762 147.75 92.2656 140.132 94.668 135.444C95.7226 133.334 97.2168 132.514 100 132.514C101.465 132.514 102.285 132.69 103.252 133.188Z" fill="#8B7AEB"/>
<path d="M151.182 128.412C148.34 129.144 146.084 130.99 144.883 133.657C143.975 135.62 143.652 139.868 144.238 142.564C144.678 144.791 146.113 147.545 147.578 149.069L148.779 150.329L147.315 150.534C142.627 151.12 138.232 152.849 136.211 154.9C133.897 157.185 133.838 157.449 133.75 166.18C133.662 174.912 133.662 175 135.742 175C137.734 175 137.793 174.736 137.793 167.646C137.793 164.188 137.94 160.848 138.086 160.203C138.438 158.65 140.107 157.097 142.363 156.277C150.508 153.2 165.156 154.109 169.258 157.947C170.781 159.383 170.898 160.027 170.898 167.323C170.898 174.853 170.928 175 173.008 175C174.971 175 175 174.853 175 166.327C175 157.654 174.912 157.302 172.568 154.958C170.43 152.849 167.734 151.706 162.813 150.827L159.912 150.299L161.143 149.01C163.545 146.549 164.834 143.004 164.805 138.843C164.775 134.155 163.135 131.078 159.707 129.32C157.979 128.441 157.451 128.324 155.02 128.236C153.525 128.177 151.797 128.265 151.182 128.412ZM157.275 133.071C158.945 133.803 159.941 135.151 160.352 137.085C161.348 141.861 158.125 147.75 154.492 147.75C151.182 147.75 148.311 143.736 148.281 139.107C148.252 136.997 148.779 135.268 149.746 134.155C151.152 132.573 154.961 132.016 157.275 133.071Z" fill="#8B7AEB"/>
</svg>
