<svg width="200" height="200" viewBox="0 0 200 200" fill="none" xmlns="http://www.w3.org/2000/svg">
<path d="M72.6534 31.6714C59.0252 35.3328 47.5143 38.5476 47.1266 38.8155C44.9198 40.2443 44.9198 44.5308 47.0968 45.9596C47.6335 46.3168 64.8701 51.1688 65.5858 51.1688C65.6455 51.1688 65.7051 56.259 65.7051 62.4803C65.7051 73.3453 65.7349 73.8216 66.3015 74.3871C67.226 75.3099 74.4725 78.7034 78.2896 80.0131C85.5063 82.4838 91.6196 83.4363 99.8502 83.4363C108.319 83.4363 114.492 82.4838 121.709 80.0131C125.735 78.6438 131.968 75.6969 133.339 74.536L134.294 73.7323V62.4505V51.1986L135.576 50.8712C136.262 50.6926 138.797 50.0079 141.182 49.353C143.598 48.7279 145.655 48.1921 145.745 48.1921C145.834 48.1921 145.924 50.7223 145.924 53.8181V59.4441L145.059 59.7417C143.747 60.218 141.719 62.1826 141.063 63.6412C139.989 66.0524 140.407 69.5351 142.017 71.589C142.584 72.3332 142.584 72.3332 141.809 74.1788C141.003 75.9946 141.003 76.0839 141.003 83.0791C141.003 89.7172 141.033 90.1637 141.63 90.9376C143.061 92.8725 143.478 92.9915 148.309 92.9915C153.141 92.9915 153.558 92.8725 154.989 90.9376C155.586 90.1637 155.616 89.7172 155.616 83.0791V76.0243L154.781 74.0299C153.946 72.0058 153.946 72.0058 154.512 71.2021C157.137 67.4216 155.496 61.5278 151.351 59.831L150.397 59.4441V53.2525V47.061L151.799 46.3763C153.528 45.4833 154.304 44.4712 154.482 42.8043C154.632 41.2862 153.946 39.768 152.723 38.875C152.276 38.5476 148.22 37.2974 143.329 35.9876C101.968 24.8845 102.325 24.9738 99.8502 25.0036C97.7031 25.0036 94.8701 25.6882 72.6534 31.6714ZM125.586 35.8983C138.916 39.4704 149.741 42.4173 149.592 42.4471C149.473 42.4769 138.588 45.394 125.407 48.9363C110.586 52.8953 100.924 55.3362 100.059 55.3362C99.1644 55.3362 89.9198 53.0144 74.3831 48.8768C54.6713 43.608 50.2578 42.3578 50.9735 42.1494C69.1942 37.089 98.389 29.4984 99.7011 29.4686C100.983 29.4389 106.799 30.8677 125.586 35.8983ZM86.0133 56.646C95.9139 59.2952 98.1504 59.8013 99.9994 59.8013C101.848 59.8013 104.234 59.2655 115.626 56.2292C123.021 54.2348 129.254 52.5679 129.463 52.5083C129.761 52.3893 129.82 54.3539 129.761 61.9743L129.671 71.5593L126.54 73.1072C119.025 76.8578 108.826 79.1499 99.8204 79.1499C91.053 79.1499 80.8542 76.828 73.399 73.1072L70.3274 71.5593L70.2379 61.9743L70.1783 52.3893L72.1763 52.9549C73.3095 53.2525 79.5123 54.9195 86.0133 56.646ZM150.278 64.6831C151.381 65.7845 151.59 66.8858 150.934 68.2551C149.83 70.7258 146.013 70.4579 145.148 67.8384C144.701 66.5286 144.94 65.5761 145.983 64.564C147.266 63.2543 148.906 63.3138 150.278 64.6831ZM150.695 76.0541C151.232 77.5424 151.292 78.2569 151.232 83.1089L151.142 88.5265H148.309H145.476L145.387 83.1089C145.327 78.2569 145.387 77.5424 145.924 76.0541L146.55 74.3871H148.309H150.069L150.695 76.0541Z" fill="#604AE3"/>
<path d="M71.0437 84.2103C66.4811 85.014 63.5586 87.9907 62.6938 92.6343C62.0676 95.9683 63.171 100.404 65.2883 103.202C65.7058 103.737 66.004 104.243 65.9742 104.273C65.9145 104.333 64.841 104.601 63.6183 104.898C59.8012 105.791 56.1928 107.071 54.8211 108.024C52.2266 109.81 51.5109 111.596 51.2127 116.984C51.0338 120.08 50.9443 120.526 50.5268 120.377C49.4533 119.961 46.2326 119.871 44.4732 120.199C40.8946 120.913 38.6282 122.669 37.1074 125.884C36.4215 127.343 36.332 127.879 36.3618 130.796C36.3618 134.546 36.9583 136.511 38.7475 138.863C39.4334 139.756 39.6421 140.232 39.4036 140.321C39.1948 140.381 37.674 140.768 36.004 141.184C29.7117 142.732 27.326 144.072 25.8946 146.84L25 148.626V159.193C25 169.463 25.0298 169.82 25.6262 170.981C26.4911 172.589 27.7137 173.779 29.175 174.434C30.2783 174.94 31.501 175 47.008 175C60.4573 175 63.827 174.91 64.6322 174.583C66.1829 173.928 67.674 172.44 68.4195 170.773C69.1054 169.225 69.1352 169.046 69.1352 159.521C69.1352 151.067 69.0755 149.638 68.5984 148.12C67.5249 144.667 65.0795 143.03 58.5487 141.333C56.4911 140.797 54.7316 140.291 54.6123 140.202C54.493 140.113 54.6421 139.726 54.9105 139.339C55.3877 138.714 55.5368 138.684 56.7594 138.952C58.9066 139.458 88.8171 139.369 90.2187 138.863C91.2028 138.505 91.3817 138.535 91.7694 138.952C92.7237 140.024 92.4851 140.202 88.8171 141.214C83.3002 142.732 81.8688 143.357 80.3181 144.905C78.3499 146.87 77.992 148.388 77.7833 155.8C77.664 159.074 77.7237 163.659 77.8728 166.01C78.1412 169.91 78.2008 170.356 79.006 171.666C79.6024 172.589 80.4374 173.392 81.5109 174.017L83.1213 175H99.8509H116.581L118.161 174.226C119.92 173.333 121.292 171.725 121.829 169.82C122.038 169.017 122.157 165.445 122.187 159.372C122.187 147.763 121.859 146.304 118.698 144.012C117.505 143.149 112.734 141.452 109.453 140.738C108.499 140.53 107.664 140.262 107.604 140.143C107.515 140.024 107.694 139.637 107.992 139.25C108.529 138.624 108.648 138.624 109.93 138.922C111.839 139.428 141.243 139.428 143.151 138.922C144.433 138.624 144.553 138.624 145.06 139.309C145.358 139.696 145.507 140.113 145.388 140.202C145.268 140.291 143.509 140.797 141.451 141.333C134.92 143.03 132.475 144.667 131.402 148.12C130.924 149.638 130.865 151.067 130.865 159.521C130.865 169.046 130.895 169.225 131.581 170.773C132.326 172.44 133.817 173.928 135.368 174.583C136.173 174.91 139.543 175 152.932 175C171.183 175 170.706 175.059 172.704 173.124C173.27 172.589 173.986 171.636 174.344 170.981C174.97 169.82 175 169.493 175 159.223V148.656L174.165 146.929C172.793 144.191 170.676 142.97 164.563 141.333C162.594 140.827 160.805 140.351 160.596 140.291C160.358 140.232 160.596 139.726 161.252 138.863C163.459 135.945 164.443 130.825 163.4 127.313C162.475 124.098 159.911 121.36 157.018 120.526C155.288 120.02 151.859 119.841 150.398 120.199C149.473 120.407 149.026 120.407 148.877 120.169C148.787 120.02 148.608 118.234 148.549 116.21C148.429 112.995 148.31 112.34 147.594 110.911C146.282 108.203 143.718 106.774 137.425 105.166C135.636 104.72 134.085 104.303 134.026 104.273C133.966 104.214 134.384 103.47 134.95 102.606C136.71 99.9273 137.127 98.4687 137.127 94.7776C137.127 91.652 137.068 91.3841 136.143 89.479C134.294 85.7582 131.252 84.0912 126.392 84.121C120.427 84.1805 116.581 87.3358 115.805 92.8725C115.298 96.3255 116.372 100.552 118.37 103.202C118.787 103.737 119.085 104.243 119.056 104.273C118.996 104.303 117.475 104.72 115.656 105.166C111.63 106.208 108.529 107.429 107.127 108.619C105.338 110.078 104.742 111.745 104.384 116.388L104.085 120.467L103.012 120.288C101.581 120.02 98.3598 120.02 96.839 120.288L95.6163 120.526L95.4374 116.716C95.3479 114.305 95.1093 112.429 94.7813 111.536C94.2147 109.899 92.2465 107.964 90.338 107.101C88.8469 106.446 81.9284 104.452 81.1531 104.452C80.6759 104.452 80.7654 104.214 81.6302 102.964C83.1809 100.731 83.9264 98.4092 84.1054 95.492C84.4334 90.1637 82.0477 86.2047 77.6342 84.7163C75.9046 84.1507 72.7734 83.8828 71.0437 84.2103ZM76.7694 89.2707C80.2883 91.0865 80.7058 96.9208 77.6044 100.671C74.6521 104.273 70.4175 103.529 68.0915 99.0045C67.1968 97.2185 67.0775 96.6827 67.0775 94.8371C67.0775 91.5032 68.3002 89.7172 71.2227 88.7646C72.7435 88.2884 75.2187 88.4967 76.7694 89.2707ZM128.33 88.7051C131.402 89.4195 132.982 91.7711 132.744 95.3431C132.356 101.148 127.555 104.66 123.678 102.011C120.726 99.9868 119.235 94.4204 120.845 91.4139C121.441 90.3423 122.992 89.1814 124.364 88.7944C126.123 88.3181 126.63 88.3181 128.33 88.7051ZM79.9006 108.738C88.8469 110.971 90.159 111.566 90.7256 113.799C90.9046 114.543 91.0537 117.103 91.0537 119.514C91.0537 123.681 91.0239 123.979 90.2485 125.557C89.503 127.075 89.4135 127.551 89.3539 130.766C89.3241 133.326 89.2048 134.368 88.9066 134.546C87.833 135.231 87.7734 134.963 87.7734 128.891C87.7734 123.384 87.7435 122.937 87.1471 122.193C86.67 121.598 86.2823 121.419 85.3877 121.419C83.4195 121.419 83.3002 121.806 83.3002 128.772V134.814H73.4592H63.6183V128.891C63.6183 123.384 63.5885 122.937 62.992 122.193C62.2763 121.27 60.5765 121.121 59.6819 121.925C59.2048 122.372 59.1451 122.967 59.1451 128.652V134.874L58.34 134.665C57.8628 134.546 57.4751 134.457 57.4751 134.427C57.4453 134.398 57.5646 133.505 57.7137 132.463C58.1014 129.992 57.5944 127.164 56.4016 124.902L55.4771 123.205L55.6561 118.591C55.7455 115.704 55.9543 113.709 56.2227 113.203C57.0577 111.447 59.503 110.465 67.8231 108.47C70.1789 107.935 72.6541 107.458 73.34 107.458C73.996 107.429 76.9483 108.024 79.9006 108.738ZM133.459 108.887C136.62 109.661 140.02 110.643 140.974 111.03C143.718 112.132 143.867 112.489 144.225 118.294L144.493 123.235L143.569 124.961C142.376 127.194 141.869 130.26 142.286 132.612C142.435 133.564 142.555 134.398 142.525 134.427C142.525 134.457 142.137 134.546 141.66 134.665L140.855 134.874V129.01C140.855 122.014 140.676 121.419 138.559 121.419C137.962 121.419 137.336 121.657 136.978 122.014C136.412 122.58 136.382 122.997 136.382 128.712V134.814H126.541H116.7V128.98C116.7 122.044 116.521 121.419 114.404 121.419C113.807 121.419 113.181 121.657 112.823 122.014C112.256 122.58 112.227 122.997 112.227 128.742V134.874L111.571 134.695C111.183 134.606 110.825 134.517 110.736 134.517C110.646 134.517 110.586 132.879 110.586 130.855C110.586 127.283 110.557 127.134 109.573 125.2L108.559 123.205L108.767 118.651C109.006 113.412 109.334 112.4 111.153 111.388C113.002 110.376 124.245 107.488 126.451 107.458C127.137 107.429 130.298 108.083 133.459 108.887ZM49.1551 124.723C52.3757 125.616 53.9264 128.593 53.1809 132.373C52.495 135.678 50.1093 138.476 47.6342 138.863C44.1451 139.369 40.6561 135.291 40.6561 130.706C40.6859 126.063 44.4433 123.413 49.1551 124.723ZM103.489 125.259C105.368 126.331 106.083 127.67 106.233 130.379C106.322 132.373 106.203 132.909 105.517 134.487C104.563 136.6 102.922 138.208 101.223 138.714C98.6879 139.458 95.9443 137.731 94.4831 134.487C93.7972 132.909 93.6779 132.373 93.7674 130.379C93.8569 128.533 94.0358 127.849 94.6322 127.015C95.3777 125.914 96.4811 125.11 97.8529 124.664C99.1948 124.247 102.207 124.545 103.489 125.259ZM155.229 124.693C158.718 125.676 160.298 129.873 158.748 133.981C157.018 138.595 152.932 140.262 149.831 137.612C145.179 133.624 145.686 126.182 150.696 124.753C152.097 124.336 153.887 124.336 155.229 124.693ZM54.4334 144.905C57.6541 145.709 61.0239 146.721 61.9781 147.168C64.662 148.448 64.662 148.418 64.662 159.283C64.662 168.094 64.6322 168.451 64.0358 169.255C63.7078 169.701 62.9622 170.237 62.3956 170.416L61.3817 170.773L61.2922 164.641C61.2326 160.473 61.1133 158.39 60.8748 158.092C59.831 156.872 57.5646 157.14 57.0278 158.539C56.8787 158.926 56.7594 161.873 56.7594 165.058V170.832H46.9185H37.0775V164.641C37.0775 157.914 37.0477 157.824 35.3777 157.318C34.8708 157.14 33.2008 157.675 32.8429 158.122C32.8131 158.152 32.7237 161.009 32.6342 164.462L32.4553 170.713L31.4712 170.475C30.8449 170.297 30.2783 169.85 29.8907 169.255C29.3241 168.362 29.2942 167.856 29.3837 158.926C29.4732 148.12 29.4135 148.388 32.2167 147.108C34.5427 146.036 44.9205 143.476 46.9483 143.447C47.992 143.447 50.7952 143.983 54.4334 144.905ZM105.785 144.518C114.314 146.542 116.402 147.406 117.177 149.251C117.714 150.531 118.012 160.652 117.654 165.415C117.386 169.463 117.117 169.999 115.268 170.505L114.314 170.803V164.73C114.314 159.283 114.254 158.628 113.748 158.003C112.972 157.05 111.183 157.05 110.408 158.003C109.901 158.628 109.841 159.283 109.841 164.76V170.832H100H90.159V164.76C90.159 159.283 90.0994 158.628 89.5924 158.003C88.8171 157.05 87.0278 157.05 86.2525 158.003C85.7455 158.628 85.6859 159.283 85.6859 164.73V170.803L84.7316 170.505C82.8827 169.999 82.6143 169.463 82.3459 165.415C81.9881 160.652 82.2863 150.531 82.8231 149.251C83.5984 147.436 85.2386 146.721 93.5885 144.667C96.2127 144.012 99.0159 143.476 99.8211 143.476C100.626 143.447 103.31 143.923 105.785 144.518ZM160.358 144.905C163.549 145.709 166.889 146.691 167.783 147.108C170.586 148.388 170.527 148.12 170.616 158.926C170.706 167.856 170.676 168.362 170.109 169.255C169.722 169.85 169.155 170.297 168.529 170.475L167.545 170.713L167.366 164.462C167.276 161.009 167.187 158.152 167.157 158.122C166.799 157.675 165.129 157.14 164.622 157.318C162.952 157.824 162.922 157.914 162.922 164.641V170.832H153.082H143.241V165.058C143.241 161.873 143.121 158.926 142.972 158.539C142.435 157.14 140.169 156.872 139.125 158.092C138.887 158.39 138.767 160.473 138.708 164.641L138.618 170.773L137.604 170.416C137.038 170.237 136.292 169.701 135.964 169.255C135.368 168.451 135.338 168.064 135.338 159.432C135.338 149.073 135.427 148.626 137.366 147.495C139.453 146.275 150.249 143.506 152.992 143.476C153.917 143.447 156.869 144.042 160.358 144.905Z" fill="#604AE3"/>
</svg>
