<svg width="200" height="200" viewBox="0 0 200 200" fill="none" xmlns="http://www.w3.org/2000/svg">
<path d="M96.0724 25.5364C92.8806 26.5681 90.1752 28.9651 88.5641 32.2421C87.8042 33.7592 87.7434 34.2144 87.7434 37.4003C87.7434 40.5256 87.8346 41.0718 88.5641 42.5889C88.9897 43.5295 89.8408 44.8342 90.4488 45.5018L91.5127 46.7155L88.4121 47.2313C62.209 51.7827 41.5686 72.4155 36.4922 99.1168C35.2458 105.519 35.3674 116.715 36.705 123.178L37.1609 125.424L36.1274 126.698C32.054 131.705 32.2668 138.805 36.6138 143.386L37.5865 144.418L35.6106 145.45C34.3339 146.117 32.7532 147.331 31.1725 148.909C27.4639 152.58 25.5793 156.646 25.0929 162.017C24.9105 164.08 24.9409 164.201 25.7008 164.96L26.4912 165.779L46.5235 165.749L66.5559 165.718L67.7414 166.447C72.6355 169.542 80.7518 172.515 88.0169 173.911C102.456 176.702 119.145 174.032 131.395 166.993L133.614 165.718L153.586 165.749C176.962 165.779 175.016 166.083 174.925 162.442C174.834 159.529 174.165 156.98 172.645 153.915C171.034 150.669 167.508 147.028 164.499 145.45L162.523 144.418L163.495 143.386C167.69 138.956 167.994 132.069 164.225 127.062L162.979 125.424L163.678 121.692C164.255 118.475 164.347 116.928 164.347 110.526C164.316 104.761 164.195 102.455 163.799 100.209C161.155 86.0393 155.197 74.4788 145.5 64.8602C136.198 55.6058 123.552 49.1125 110.937 47.1099L108.566 46.7155L109.66 45.5018C110.268 44.8342 111.119 43.5295 111.545 42.5889C112.275 41.0718 112.366 40.5256 112.366 37.4003C112.366 34.2144 112.305 33.7592 111.515 32.2118C109.904 28.8741 107.046 26.4164 103.733 25.4454C101.574 24.8082 98.2003 24.8689 96.0724 25.5364ZM103.246 30.2395C105.192 31.1195 107.137 33.3041 107.654 35.1247C108.11 36.7935 107.897 39.676 107.229 40.9807C106.499 42.3765 104.705 44.0453 103.277 44.7129C102.456 45.077 101.331 45.2894 100.055 45.2894C97.6835 45.2894 96.0724 44.6218 94.4917 43.044C92.9718 41.5572 92.4247 40.3436 92.2423 38.2803C91.9687 35.5191 92.5767 33.911 94.5525 31.9387C95.4949 30.9981 96.7412 30.0878 97.3188 29.9058C99.2034 29.3292 101.574 29.4506 103.246 30.2395ZM104.31 50.66C108.596 51.813 112.457 54.9989 114.433 58.9738C115.041 60.2178 115.618 61.7956 115.74 62.4935L115.953 63.7982H100.055H84.1564L84.3692 62.5239C84.4908 61.826 84.9771 60.3999 85.4939 59.3683C88.8985 52.2074 96.7412 48.5664 104.31 50.66ZM83.7612 53.2391C83.6396 53.4515 83.214 54.0583 82.8189 54.5741C80.1438 58.1242 78.4111 66.165 79.9918 67.7428C80.5998 68.3496 80.995 68.3496 100.055 68.3496C119.114 68.3496 119.509 68.3496 120.117 67.7428C121.668 66.1953 120.148 58.8828 117.473 54.9383C116.926 54.0887 116.378 53.2694 116.287 53.1481C116.074 52.8143 118.871 53.6639 122.093 54.9079C129.936 57.9725 136.806 62.5542 142.946 68.8351C150.637 76.7241 155.47 85.3414 158.145 95.9309C160.212 103.972 160.516 113.742 158.997 121.388C158.693 122.905 158.662 122.966 157.872 122.754C157.416 122.602 155.683 122.511 154.011 122.511C151.215 122.511 150.789 122.602 148.935 123.482C141.366 127.032 139.359 137.136 144.983 143.204L146.108 144.448L144.892 145.055C139.572 147.665 135.347 153.217 133.979 159.407C133.857 159.984 133.067 160.621 130.665 162.047C111.819 173.243 88.3209 173.274 69.5349 162.108C66.5255 160.318 66.2823 160.105 65.9783 158.952C65.0664 155.25 63.3641 152.004 60.9626 149.364C59.6859 147.938 56.7373 145.753 55.0046 144.934L53.8799 144.418L55.0654 143.113C61.1146 136.559 58.47 126.122 49.9585 122.966C48.1346 122.268 44.1829 122.116 42.3894 122.632C41.2039 122.966 41.2647 123.087 40.5959 118.657C39.836 113.499 40.1399 103.85 41.2039 98.7831C42.5718 92.4112 44.6389 86.7978 47.6179 81.3969C54.7614 68.562 66.7079 58.6097 80.5998 53.9673C84.3084 52.7233 84.0348 52.7839 83.7612 53.2391ZM49.0466 127.578C50.6881 128.276 52.36 129.975 53.1199 131.674C53.4239 132.342 53.6367 133.677 53.6367 134.8C53.6975 139.442 49.7153 143.022 45.0036 142.598C38.1337 141.991 35.3066 133.556 40.4135 128.974C41.9334 127.578 42.6022 127.244 44.2133 126.941C45.8244 126.637 47.2531 126.819 49.0466 127.578ZM157.689 127.639C160.304 128.852 162.371 132.008 162.371 134.8C162.371 137.561 160.425 140.565 157.75 141.9C153.494 144.024 148.053 141.657 146.716 137.106C146.138 135.224 146.138 134.375 146.716 132.494C147.688 129.217 150.85 126.911 154.315 126.911C155.592 126.911 156.595 127.123 157.689 127.639ZM48.8338 147.695C55.1262 149.03 60.4155 154.219 61.5402 160.196L61.753 161.197H45.7636H29.7742L29.9566 160.044C30.3518 157.89 32.4796 154.067 34.3643 152.155C37.2521 149.273 41.6902 147.331 45.49 147.27C46.1588 147.27 47.6787 147.452 48.8338 147.695ZM159.179 148.181C163.921 149.637 168.207 153.946 169.666 158.709C170.001 159.771 170.274 160.773 170.274 160.924C170.274 161.076 163.495 161.197 154.315 161.197C145.135 161.197 138.356 161.076 138.356 160.924C138.356 159.953 139.755 156.464 140.758 154.947C144.922 148.605 152.066 145.966 159.179 148.181Z" fill="#8B7AEB"/>
<path d="M96.4979 73.3258C94.522 73.963 92.6981 75.1463 91.2694 76.6938C87.1353 81.1845 87.1961 88.406 91.4214 92.927L92.1205 93.6856L90.3879 94.5958C89.4455 95.1117 87.7432 96.3557 86.6185 97.4177L84.5818 99.3293L83.6395 98.8438L82.6971 98.3583L83.7611 97.1143C87.6824 92.5629 87.5608 85.8269 83.4875 81.4576C77.7726 75.298 67.6197 76.7848 64.0327 84.2794C63.3639 85.6752 63.1512 86.6765 63.0296 88.5577C62.8168 92.1988 63.8199 95.1117 66.0998 97.539L66.8597 98.3583L65.5526 99.0258C63.6071 99.9968 61.0233 102.121 59.5946 103.911C57.1019 107.067 55.3692 111.709 55.3692 115.289C55.3692 118.536 55.0045 118.415 65.4006 118.415H74.2161V119.325C74.2161 121.904 75.3408 124.908 77.1343 127.123L78.1678 128.397L76.8303 129.065C71.1763 131.887 66.9205 138.683 66.7989 145.177C66.7381 148.636 63.1208 148.302 99.2337 148.393C116.5 148.423 131.061 148.393 131.608 148.302C133.097 148.029 133.492 146.846 133.158 143.842C132.672 139.503 131.061 136.074 127.96 132.827C126.866 131.644 125.042 130.157 123.947 129.52L121.971 128.367L123.309 126.577C124.859 124.483 125.558 122.602 125.65 120.175L125.741 118.415H134.587H143.433L144.132 117.656C144.77 116.958 144.831 116.746 144.648 114.47C144.436 111.679 143.402 108.493 141.943 106.065C140.545 103.668 137.323 100.543 135.073 99.3596L133.158 98.328L134.283 97.1143C134.891 96.4467 135.742 95.1117 136.198 94.171C136.867 92.6843 136.988 92.0774 136.988 89.4376C136.988 86.6765 136.897 86.2213 136.046 84.4311C133.766 79.6067 128.629 76.9062 123.4 77.7558C119.54 78.3626 116.348 80.7597 114.554 84.4311C113.673 86.2213 113.582 86.6461 113.582 89.2859C113.612 92.7449 114.311 94.8386 116.196 96.9625L117.412 98.3583L116.469 98.8438L115.527 99.3293L113.43 97.3873C112.274 96.3254 110.572 95.051 109.66 94.5655L108.019 93.7159L109.052 92.4719C113.186 87.4047 112.67 79.8797 107.867 75.7532C105.648 73.8719 103.611 73.1134 100.51 72.992C98.7777 72.9313 97.3186 73.0527 96.4979 73.3258ZM102.304 77.7861C104.037 78.2716 106.499 80.8507 107.016 82.7016C108.323 87.3743 104.918 91.8347 100.054 91.8347C95.6467 91.8347 92.3333 88.1632 92.8501 83.8243C93.3973 79.2729 97.7138 76.5117 102.304 77.7861ZM78.259 83.1567C83.5179 85.9786 83.1227 93.5642 77.6207 96.0219C74.0641 97.5997 69.8995 96.0523 68.258 92.4719C66.9205 89.6197 67.4373 86.6461 69.6867 84.3704C72.149 81.9127 75.1888 81.4879 78.259 83.1567ZM127.291 82.4589C129.297 83.0657 130.848 84.4008 131.851 86.4337C132.55 87.8598 132.641 88.3453 132.489 89.9231C132.276 92.4415 131.091 94.2924 128.933 95.5668C127.534 96.4164 127.018 96.5681 125.285 96.5681C123.552 96.5681 123.035 96.4164 121.637 95.5668C120.512 94.9296 119.692 94.1104 119.053 93.1091C118.263 91.8043 118.141 91.3188 118.141 89.468C118.141 87.6474 118.263 87.0709 118.992 85.8876C119.996 84.1884 121.424 83.005 123.218 82.4589C124.92 81.9127 125.498 81.9127 127.291 82.4589ZM103.55 97.0232C105.952 97.6604 108.536 99.0865 110.207 100.695L111.606 102.03L110.055 104.093C109.174 105.216 108.14 106.854 107.745 107.704L107.016 109.312H100.024H93.0629L92.0294 107.249C91.4518 106.126 90.4183 104.578 89.7495 103.79C88.2296 102.09 88.2904 101.817 90.631 99.9664C94.4308 96.9625 99.1121 95.9006 103.55 97.0232ZM79.171 102.03C81.4812 102.758 84.4602 104.639 85.7673 106.217C86.6793 107.34 86.6793 107.34 86.0105 107.431C84.0043 107.643 81.8156 108.25 80.5085 108.948C79.1102 109.706 75.736 112.983 75.736 113.59C75.736 113.742 72.6354 113.863 67.9541 113.863H60.1417L60.3241 112.771C60.8105 109.737 63.7591 105.61 66.7989 103.668C70.3555 101.393 75.0672 100.755 79.171 102.03ZM131.577 102.788C135.651 104.791 139.025 108.887 139.724 112.71L139.937 113.863H132.155H124.403L123.947 113.014C123.279 111.739 120.573 109.342 118.992 108.644C118.202 108.311 116.621 107.855 115.436 107.673L113.338 107.309L114.463 106.065C115.922 104.427 118.263 102.97 120.725 102.09C122.427 101.514 123.157 101.423 125.954 101.514C128.993 101.605 129.358 101.696 131.577 102.788ZM88.9591 112.771C90.7526 113.59 92.5461 115.441 93.0629 117.049C94.066 120.083 92.6677 123.816 89.9319 125.515C84.3386 128.974 77.3775 123.664 79.2317 117.353C80.4477 113.165 85.129 110.981 88.9591 112.771ZM116.135 112.498C117.989 113.135 119.296 114.258 120.269 116.048C122.245 119.689 120.756 124.119 116.925 125.879C113.186 127.639 108.718 125.909 107.107 122.056C106.894 121.479 106.681 120.235 106.681 119.295C106.681 114.44 111.606 110.89 116.135 112.498ZM103.398 113.712C103.398 113.833 103.185 114.288 102.942 114.743C102.274 116.109 101.878 119.082 102.182 121.085C102.486 123.269 103.641 125.758 105.009 127.244L106.012 128.337L104.401 129.186C103.52 129.641 102.182 130.552 101.422 131.219L100.085 132.403L98.3522 131.007C97.4098 130.218 96.0419 129.308 95.3123 128.943L94.0052 128.306L95.0996 127.123C98.0786 123.816 98.7777 118.597 96.8322 113.924C96.7107 113.651 97.4402 113.56 100.024 113.56C101.878 113.56 103.398 113.621 103.398 113.712ZM90.783 132.069C93.0629 132.858 94.7652 133.859 96.0419 135.164L97.045 136.195L96.2547 137.925C95.7987 138.865 95.2212 140.595 94.9476 141.778L94.4612 143.902H82.9403H71.4194L71.6322 142.901C71.7538 142.385 72.301 140.929 72.8785 139.715C75.9488 133.07 83.8827 129.702 90.783 132.069ZM116.804 131.583C122.61 132.827 127.018 137.197 128.446 143.053L128.629 143.902H113.886H99.1425L99.3249 143.053C100.723 137.257 105.161 132.827 110.815 131.614C113.247 131.067 114.372 131.067 116.804 131.583Z" fill="#8B7AEB"/>
</svg>
